<svg xmlns="http://www.w3.org/2000/svg" viewBox="0 0 400 280" width="900" height="630" role="img" aria-label="GameSir Kaleid — front layout schematic">
  <title>GameSir Kaleid — front layout schematic</title>
  <desc>Original schematic diagram from the community-maintained GameSir Wiki. Not GameSir product photography.</desc>

  <style>
    :root { color-scheme: dark light; }
    svg { --ink:#f2f3f5; --muted:#a6aab3; --dim:#71757e; --line:#34343e;
          --s1:#121216; --s2:#17171d; --s3:#1e1e25; --inset:#0e0e12;
          --brand:#e5343c; --good:#35d07f; --warn:#ffc247; --bad:#ff6b6b; --info:#64a8ff; }
    @media (prefers-color-scheme: light) {
      svg { --ink:#16171a; --muted:#585d66; --dim:#80858d; --line:#cdced5;
            --s1:#fff; --s2:#fbfbfc; --s3:#f1f1f4; --inset:#f4f4f7;
            --brand:#d6272e; --good:#0f7a44; --warn:#8a5a00; --bad:#c02626; --info:#175fd0; }
    }
  </style>
  <style>
    .d-canvas{fill:var(--s1)}
    .d-body{fill:var(--s2);stroke:var(--line);stroke-width:2}
    .d-panel{fill:none;stroke:var(--line);stroke-width:1;stroke-dasharray:3 4}
    .d-part{fill:var(--s3);stroke:var(--line);stroke-width:1.4}
    .d-part-2{fill:var(--inset);stroke:var(--line);stroke-width:1.4}
    .d-part-inset{fill:var(--inset);stroke:var(--line);stroke-width:1}
    .d-recess{fill:var(--inset);stroke:var(--line);stroke-width:1.4}
    .d-port{fill:var(--inset);stroke:var(--muted);stroke-width:1.4}
    .d-plate{fill:var(--s3);stroke:var(--brand);stroke-width:1.6;opacity:.9}
    .d-btn,.d-btn-sm,.d-step{fill:var(--s3);stroke:var(--muted);stroke-width:1.3}
    .d-btn-good{fill:color-mix(in srgb,var(--good) 22%,transparent);stroke:var(--good)}
    .d-btn-bad{fill:color-mix(in srgb,var(--bad) 22%,transparent);stroke:var(--bad)}
    .d-btn-info{fill:color-mix(in srgb,var(--info) 22%,transparent);stroke:var(--info)}
    .d-btn-warn{fill:color-mix(in srgb,var(--warn) 22%,transparent);stroke:var(--warn)}
    .d-btn-letter{fill:var(--ink);font:700 12px system-ui,sans-serif;text-anchor:middle;dominant-baseline:central}
    .d-guide{fill:var(--s3);stroke:var(--muted);stroke-width:1.4}
    .d-guide-ring{fill:none;stroke:var(--line);stroke-width:1.2}
    .d-window{fill:var(--inset);stroke:var(--muted);stroke-width:1.2;stroke-dasharray:4 3}
    .d-gear{fill:var(--s3);stroke:var(--brand);stroke-width:1.4}
    .d-fence{fill:var(--inset);stroke:var(--line);stroke-width:1.4}
    .d-glide-ring{fill:none;stroke:var(--dim);stroke-width:1.6;opacity:.7}
    .d-lit{fill:color-mix(in srgb,var(--brand) 26%,transparent);stroke:none;opacity:.55}
    .d-lit-good{fill:color-mix(in srgb,var(--good) 26%,transparent)}
    .d-lit-bad{fill:color-mix(in srgb,var(--bad) 26%,transparent)}
    .d-lit-info{fill:color-mix(in srgb,var(--info) 26%,transparent)}
    .d-lit-warn{fill:color-mix(in srgb,var(--warn) 26%,transparent)}
    .d-ring,.d-accent-ring{fill:none;stroke:var(--line);stroke-width:1.4}
    .d-accent-ring{stroke:var(--brand)}
    .d-swap-ring{fill:none;stroke:var(--brand);stroke-width:1.4;stroke-dasharray:5 4}
    .d-seam{fill:none;stroke:var(--line);stroke-width:1.2;stroke-dasharray:5 5}
    .d-rgb{fill:none;stroke:var(--brand);stroke-width:3.4;stroke-linecap:round;opacity:.75}
    .d-texture{fill:none;stroke:var(--line);stroke-width:1.6;stroke-linecap:round}
    .d-ink{fill:none;stroke:var(--muted);stroke-width:1.6}
    .d-ink-thick{fill:none;stroke:var(--muted);stroke-width:3.4;stroke-linecap:round}
    .d-leader,.d-dim-stroke{fill:none;stroke:var(--dim);stroke-width:1.1}
    .d-travel{fill:none;stroke:var(--muted);stroke-width:1.4;stroke-dasharray:5 4}
    .d-accent-stroke{fill:none;stroke:var(--brand);stroke-width:1.8;stroke-linecap:round}
    .d-good-stroke{fill:none;stroke:var(--good);stroke-width:1.8}
    .d-warn-stroke{fill:none;stroke:var(--warn);stroke-width:1.8}
    .d-accent-fill{fill:var(--brand);stroke:none}
    .d-good-fill{fill:var(--good);stroke:none}
    .d-warn-fill{fill:var(--warn);stroke:none}
    .d-bad-fill{fill:var(--bad);stroke:none}
    .d-half-fill{fill:var(--muted);stroke:none}
    .d-dim-fill{fill:var(--dim);stroke:none}
    .d-deadzone{fill:color-mix(in srgb,var(--info) 26%,transparent);stroke:var(--info);stroke-width:1.2}
    .d-antideadzone{fill:color-mix(in srgb,var(--brand) 20%,transparent);stroke:var(--brand);stroke-width:1.2}
    .d-absent{fill:none;stroke:var(--dim);stroke-width:1.2;stroke-dasharray:4 3}
    .d-slash,.d-slash-line{fill:none;stroke:var(--bad);stroke-width:1.8;stroke-linecap:round}
    .d-lane{fill:var(--inset);stroke:var(--line);stroke-width:1.2}
    .d-lane.on{fill:color-mix(in srgb,var(--good) 12%,transparent);stroke:var(--good)}
    .d-lane-icon{color:var(--muted)}
    .d-glyph{fill:var(--muted);stroke:none}
    .d-glyph-stroke{fill:none;stroke:var(--muted);stroke-width:1.4;stroke-linecap:round}
    .d-label{fill:var(--muted);font:600 10px system-ui,sans-serif;text-anchor:middle;dominant-baseline:central}
    .d-label-sm{font-size:9px}
    .d-label-xs{font-size:8px;fill:var(--dim)}
    .d-label-left{text-anchor:start}
    .d-title{fill:var(--ink);font:700 10px system-ui,sans-serif;text-anchor:middle;dominant-baseline:central;letter-spacing:.04em;text-transform:uppercase}
    .d-accent-text{fill:var(--brand)}
    .d-good-text{fill:var(--good)}
    .d-dim-text{fill:var(--dim)}
    .d-on-accent{fill:#fff}
  </style>
  <rect class="d-canvas" x="0" y="0" width="400" height="280"/>
  <g class="d-hot" data-part="lt" data-name="Left trigger (LT)" data-desc="Analog trigger reporting how far it is pulled, not just whether it is pressed. Hall Effect analog." tabindex="0" role="img" aria-label="Left trigger (LT). Analog trigger reporting how far it is pulled, not just whether it is pressed. Hall Effect analog."><title>Left trigger (LT)</title><path class="d-part" d="M 146.9 21.1 L 142.4 32.3 L 137.8 35.4 L 133.1 36.5 L 128.3 37.1 L 123.5 37.8 L 118.7 38.7 L 113.9 39.7 L 109.1 41.0 L 104.3 42.4 L 99.6 44.0 L 94.9 45.8 L 90.3 47.9 L 85.7 50.1 L 81.2 52.5 L 76.9 55.2 L 72.2 57.4 L 66.3 58.2 L 55.1 53.1 L 55.1 53.1 L 52.9 40.8 L 56.3 34.7 L 61.3 30.6 L 66.8 27.3 L 72.4 24.2 L 78.1 21.5 L 83.8 18.9 L 89.6 16.7 L 95.5 14.7 L 101.3 13.0 L 107.1 11.5 L 112.9 10.2 L 118.8 9.1 L 124.5 8.2 L 130.1 7.6 L 135.7 7.8 L 141.3 10.3 L 146.9 21.1 Z"/><text class="d-label" x="99.88699026808952" y="28.570581985939832">LT</text></g><g class="d-hot" data-part="rt" data-name="Right trigger (RT)" data-desc="Analog trigger, normally fire or accelerate." tabindex="0" role="img" aria-label="Right trigger (RT). Analog trigger, normally fire or accelerate."><title>Right trigger (RT)</title><path class="d-part" d="M 253.1 21.1 L 257.6 32.3 L 262.2 35.4 L 266.9 36.5 L 271.7 37.1 L 276.5 37.8 L 281.3 38.7 L 286.1 39.7 L 290.9 41.0 L 295.7 42.4 L 300.4 44.0 L 305.1 45.8 L 309.7 47.9 L 314.3 50.1 L 318.8 52.5 L 323.1 55.2 L 327.8 57.4 L 333.7 58.2 L 344.9 53.1 L 344.9 53.1 L 347.1 40.8 L 343.7 34.7 L 338.7 30.6 L 333.2 27.3 L 327.6 24.2 L 321.9 21.5 L 316.2 18.9 L 310.4 16.7 L 304.5 14.7 L 298.7 13.0 L 292.9 11.5 L 287.1 10.2 L 281.2 9.1 L 275.5 8.2 L 269.9 7.6 L 264.3 7.8 L 258.7 10.3 L 253.1 21.1 Z"/><text class="d-label" x="300.1130097319105" y="28.570581985939832">RT</text></g><path class="d-body" d="M 200.0 56.0 C 179.3 56.0 154.6 51.9 128.1 56.0 C 101.7 60.1 77.1 72.3 60.1 96.7 C 46.8 117.2 42.1 141.6 44.9 166.0 C 47.7 196.6 58.2 229.3 78.9 249.7 C 95.9 265.9 118.7 270.0 135.7 257.8 C 149.0 248.6 154.6 235.3 158.3 215.0 C 161.3 208.4 167.9 200.2 181.1 198.3 C 187.7 197.2 194.4 197.2 200.0 197.2 C 205.6 197.2 212.3 197.2 218.9 198.3 C 232.1 200.2 238.7 208.4 241.7 215.0 C 245.4 235.3 251.0 248.6 264.3 257.8 C 281.3 270.0 304.1 265.9 321.1 249.7 C 341.8 229.3 352.3 196.6 355.1 166.0 C 357.9 141.6 353.2 117.2 339.9 96.7 C 322.9 72.3 298.3 60.1 271.9 56.0 C 245.4 51.9 220.7 56.0 200.0 56.0 Z"/><g class="d-hot" data-part="lb" data-name="Left bumper (LB)" data-desc="Digital shoulder button above the left trigger. Reported as LB on Xbox and L1 elsewhere." tabindex="0" role="img" aria-label="Left bumper (LB). Digital shoulder button above the left trigger. Reported as LB on Xbox and L1 elsewhere."><title>Left bumper (LB)</title><path class="d-part-2" d="M 154.0 46.9 L 149.3 57.2 L 144.8 60.0 L 140.4 60.9 L 135.9 61.3 L 131.4 61.8 L 127.0 62.5 L 122.6 63.3 L 118.3 64.3 L 114.0 65.5 L 109.8 66.9 L 105.6 68.4 L 101.6 70.1 L 97.6 72.0 L 93.7 74.1 L 90.0 76.3 L 86.0 78.3 L 80.8 78.8 L 70.6 74.1 L 70.6 74.1 L 68.1 62.8 L 71.1 57.3 L 75.5 53.6 L 80.4 50.6 L 85.4 47.9 L 90.5 45.5 L 95.7 43.3 L 101.0 41.3 L 106.3 39.6 L 111.6 38.2 L 117.0 36.9 L 122.4 35.9 L 127.8 35.1 L 133.1 34.4 L 138.4 34.0 L 143.7 34.3 L 148.9 36.7 L 154.0 46.9 Z"/><text class="d-label d-label-sm" x="110.14548176599023" y="52.57174284559147">LB</text></g><g class="d-hot" data-part="rb" data-name="Right bumper (RB)" data-desc="Digital shoulder button above the right trigger. Reported as RB on Xbox and R1 elsewhere." tabindex="0" role="img" aria-label="Right bumper (RB). Digital shoulder button above the right trigger. Reported as RB on Xbox and R1 elsewhere."><title>Right bumper (RB)</title><path class="d-part-2" d="M 246.0 46.9 L 250.7 57.2 L 255.2 60.0 L 259.6 60.9 L 264.1 61.3 L 268.6 61.8 L 273.0 62.5 L 277.4 63.3 L 281.7 64.3 L 286.0 65.5 L 290.2 66.9 L 294.4 68.4 L 298.4 70.1 L 302.4 72.0 L 306.3 74.1 L 310.0 76.3 L 314.0 78.3 L 319.2 78.8 L 329.4 74.1 L 329.4 74.1 L 331.9 62.8 L 328.9 57.3 L 324.5 53.6 L 319.6 50.6 L 314.6 47.9 L 309.5 45.5 L 304.3 43.3 L 299.0 41.3 L 293.7 39.6 L 288.4 38.2 L 283.0 36.9 L 277.6 35.9 L 272.2 35.1 L 266.9 34.4 L 261.6 34.0 L 256.3 34.3 L 251.1 36.7 L 246.0 46.9 Z"/><text class="d-label d-label-sm" x="289.8545182340098" y="52.57174284559147">RB</text></g><g class="d-hot" data-part="ls" data-name="Left stick" data-desc="Movement axis, and a digital click (LS/L3) when pressed. Sensor: Hall Effect." tabindex="0" role="img" aria-label="Left stick. Movement axis, and a digital click (LS/L3) when pressed. Sensor: Hall Effect."><title>Left stick</title><circle class="d-recess" cx="114.97999999999999" cy="118.06" r="29.0873786407767"/><circle class="d-glide-ring" cx="114.97999999999999" cy="118.06" r="24.5873786407767"/><circle class="d-part" cx="114.97999999999999" cy="118.06" r="20.0873786407767"/><circle class="d-part-inset" cx="114.97999999999999" cy="118.06" r="12.087378640776699"/><text class="d-label d-label-sm" x="114.97999999999999" y="118.56">LS</text></g><g class="d-hot" data-part="face" data-name="ABXY face buttons" data-desc="The four primary action buttons. Microswitch ABXY on the Kaleid — this is the headline difference from the Kalei…." tabindex="0" role="img" aria-label="ABXY face buttons. The four primary action buttons. Microswitch ABXY on the Kaleid — this is the headline difference from the Kalei…."><title>ABXY face buttons</title><circle class="d-btn d-btn-warn" cx="290.792" cy="87.933786407767" r="11.946601941747574"/><text class="d-btn-letter" x="290.792" y="88.433786407767">Y</text><circle class="d-btn d-btn-bad" cx="320.918213592233" cy="118.06" r="11.946601941747574"/><text class="d-btn-letter" x="320.918213592233" y="118.56">B</text><circle class="d-btn d-btn-good" cx="290.792" cy="148.186213592233" r="11.946601941747574"/><text class="d-btn-letter" x="290.792" y="148.686213592233">A</text><circle class="d-btn d-btn-info" cx="260.665786407767" cy="118.06" r="11.946601941747574"/><text class="d-btn-letter" x="260.665786407767" y="118.56">X</text></g><g class="d-hot" data-part="dpad" data-name="D-pad" data-desc="Eight-way directional pad, used for menus and weapon or item wheels. Not documented." tabindex="0" role="img" aria-label="D-pad. Eight-way directional pad, used for menus and weapon or item wheels. Not documented."><title>D-pad</title><path class="d-part" d="M 134.70794174757282 156.37846601941746 H 151.7240582524272 V 169.6859417475728 H 165.03153398058254 V 186.70205825242718 H 151.7240582524272 V 200.00953398058252 H 134.70794174757282 V 186.70205825242718 H 121.40046601941748 V 169.6859417475728 H 134.70794174757282 Z"/><g class="d-glyph d-glyph-stroke"><path d="M143.216 162.70399999999998l-3.16 4.14h6.32zM143.216 193.684l-3.16 -4.14h6.32zM127.72600000000001 178.194l4.14 -3.16v6.32zM158.70600000000002 178.194l-4.14 -3.16v6.32z"/></g></g><g class="d-hot" data-part="rs" data-name="Right stick" data-desc="Camera and aim axis, with a click (RS/R3). Same sensor assembly as the left stick." tabindex="0" role="img" aria-label="Right stick. Camera and aim axis, with a click (RS/R3). Same sensor assembly as the left stick."><title>Right stick</title><circle class="d-recess" cx="254.912" cy="180.334" r="29.0873786407767"/><circle class="d-glide-ring" cx="254.912" cy="180.334" r="24.5873786407767"/><circle class="d-part" cx="254.912" cy="180.334" r="20.0873786407767"/><circle class="d-part-inset" cx="254.912" cy="180.334" r="12.087378640776699"/><text class="d-label d-label-sm" x="254.912" y="180.834">RS</text></g><g class="d-hot" data-part="view" data-name="View button" data-desc="Opens in-game maps and menus. It is also the first button in most of this family's calibration and reset combinations, so its position matters more than its everyday use." tabindex="0" role="img" aria-label="View button. Opens in-game maps and menus. It is also the first button in most of this family's calibration and reset combinations, so its position matters more than its everyday use."><title>View button</title><circle class="d-btn-sm" cx="160.22" cy="105.006" r="10.907766990291261"/><g class="d-glyph"><rect x="154.22" y="100.506" width="7.5" height="6" rx="1.2"/><rect x="158.72" y="103.506" width="7.5" height="6" rx="1.2"/></g></g><g class="d-hot" data-part="menu" data-name="Menu button" data-desc="Pause and start. Held with View and the guide button it enters the calibration and reset sequences documented on this page." tabindex="0" role="img" aria-label="Menu button. Pause and start. Held with View and the guide button it enters the calibration and reset sequences documented on this page."><title>Menu button</title><circle class="d-btn-sm" cx="239.78" cy="105.006" r="10.907766990291261"/><g class="d-glyph d-glyph-stroke"><path d="M234.78 101.506h10M234.78 105.006h10M234.78 108.506h10"/></g></g><g class="d-hot" data-part="guide" data-name="Xbox guide button" data-desc="Powers the controller and opens the Xbox dashboard. Its indicator also reports connection state, the active profile slot and whether a mode switch succeeded." tabindex="0" role="img" aria-label="Xbox guide button. Powers the controller and opens the Xbox dashboard. Its indicator also reports connection state, the active profile slot and whether a mode switch succeeded."><title>Xbox guide button</title><circle class="d-guide" cx="200" cy="82.536" r="16.62135922330097"/><circle class="d-guide-ring" cx="200" cy="82.536" r="12.12135922330097"/><circle class="d-accent-fill" cx="200" cy="82.536" r="4.6"/></g><g class="d-hot" data-part="share" data-name="Share button" data-desc="Captures a screenshot or a clip. Also used in the combinations that switch the controller between GIP and XInput." tabindex="0" role="img" aria-label="Share button. Captures a screenshot or a clip. Also used in the combinations that switch the controller between GIP and XInput."><title>Share button</title><circle class="d-btn-sm" cx="200" cy="123.196" r="8.83009708737864"/><g class="d-glyph d-glyph-stroke"><rect x="195" y="119.596" width="10" height="7.2" rx="1.4"/><path d="M198.2 119.596v-1.6h3.6v1.6"/></g></g><g class="d-hot" data-part="mode" data-name="M (Mode) button" data-desc="The on-controller modifier. Held with another control it remaps the rear buttons, switches profile, toggles hair triggers and changes vibration strength without any software running." tabindex="0" role="img" aria-label="M (Mode) button. The on-controller modifier. Held with another control it remaps the rear buttons, switches profile, toggles hair triggers and changes vibration strength without any software running."><title>M (Mode) button</title><circle class="d-btn-sm" cx="200" cy="148.01999999999998" r="9.868932038834952"/><text class="d-label d-label-xs" x="200" y="148.42">M</text></g><g class="d-hot" data-part="rgb" data-name="RGB lighting" data-desc="Two customisable RGB strips." tabindex="0" role="img" aria-label="RGB lighting. Two customisable RGB strips."><title>RGB lighting</title><path class="d-rgb" d="M 60.5 127.1 L 59.4 131.7 L 58.5 136.4 L 57.8 141.2 L 57.4 146.0 L 57.2 150.9 L 57.2 155.7 L 57.5 160.6 L 58.0 165.6 L 58.6 170.9 L 59.3 175.9 L 60.1 181.0 L 61.1 186.0 L 62.3 190.9 L 63.6 195.8 L 65.1 200.6 L 66.7 205.3 L 68.5 210.0 L 70.5 214.5"/><path class="d-rgb" d="M 339.5 127.1 L 340.6 131.7 L 341.5 136.4 L 342.2 141.2 L 342.6 146.0 L 342.8 150.9 L 342.8 155.7 L 342.5 160.6 L 342.0 165.6 L 341.4 170.9 L 340.7 175.9 L 339.9 181.0 L 338.9 186.0 L 337.7 190.9 L 336.4 195.8 L 334.9 200.6 L 333.3 205.3 L 331.5 210.0 L 329.5 214.5"/></g><g class="d-hot" data-part="jack" data-name="3.5 mm headset jack" data-desc="Passes game audio and microphone through the controller. On several models in this range it stops working above a 250 Hz report rate, which is by design rather than a fault." tabindex="0" role="img" aria-label="3.5 mm headset jack. Passes game audio and microphone through the controller. On several models in this range it stops working above a 250 Hz report rate, which is by design rather than a fault."><title>3.5 mm headset jack</title><rect class="d-port" x="188.5728155339806" y="183.73514563106798" width="22.854368932038835" height="13.504854368932039" rx="5"/><circle class="d-part-inset" cx="200" cy="190.48757281553398" r="3.532038834951456"/></g>
</svg>
